<?xml version="1.0" standalone="no"?>
<!DOCTYPE svg PUBLIC "-//W3C//DTD SVG 20010904//EN"
 "http://www.w3.org/TR/2001/REC-SVG-20010904/DTD/svg10.dtd">
<svg version="1.0" xmlns="http://www.w3.org/2000/svg"
 width="928.000000pt" height="928.000000pt" viewBox="0 0 928.000000 928.000000"
 preserveAspectRatio="xMidYMid meet">
<metadata>
Created by potrace 1.14, written by Peter Selinger 2001-2017
</metadata>
<g transform="translate(0.000000,928.000000) scale(0.100000,-0.100000)"
fill="#ffffff" stroke="none">
<path d="M4295 7214 c-943 -58 -1698 -241 -2380 -574 -860 -422 -1404 -1011
-1547 -1676 -20 -95 -23 -137 -23 -319 0 -184 3 -223 23 -315 82 -363 252
-665 547 -969 271 -279 594 -508 1000 -706 613 -299 1321 -485 2125 -557 193
-17 985 -17 1170 0 667 62 1229 190 1760 399 611 241 1125 582 1456 966 617
718 642 1558 67 2291 -90 115 -358 374 -488 472 -718 542 -1657 868 -2795 970
-164 14 -776 26 -915 18z m2720 -1640 c-97 -412 -187 -795 -200 -852 l-25
-104 0 -759 c0 -601 -3 -759 -12 -759 -7 0 -130 51 -273 113 l-260 113 -5 590
-5 589 -303 599 c-167 329 -302 600 -300 601 7 6 371 155 373 153 1 -2 94
-184 206 -405 112 -222 206 -403 209 -403 3 0 63 237 134 528 71 290 134 538
140 550 9 19 62 45 251 122 159 65 241 95 243 86 1 -6 -76 -349 -173 -762z
m-4605 613 l265 -112 3 -1178 c1 -771 6 -1177 12 -1177 5 0 147 49 315 110
168 61 310 110 315 110 6 0 10 -87 10 -218 l0 -219 -37 -15 c-21 -9 -272 -118
-558 -243 -286 -125 -539 -236 -562 -246 l-43 -18 0 1659 c0 913 3 1660 8
1659 4 0 126 -51 272 -112z m1585 -658 l365 -152 0 -179 c0 -98 -2 -178 -4
-178 -2 0 -77 23 -166 50 -89 28 -169 50 -176 50 -11 0 -14 -29 -14 -150 0
-82 2 -150 4 -150 2 0 82 -13 178 -30 95 -16 174 -30 176 -30 1 0 2 -52 2
-115 0 -111 -1 -115 -22 -120 -13 -3 -89 -16 -170 -29 -81 -14 -152 -28 -158
-31 -6 -4 -10 -59 -10 -136 0 -103 3 -129 14 -129 11 0 242 81 329 115 16 7
17 -6 17 -176 l0 -184 -373 -163 c-204 -89 -375 -162 -379 -162 -5 0 -8 464
-8 1031 0 921 2 1031 15 1025 9 -3 180 -74 380 -157z m1335 -673 l0 -725 103
-39 c56 -22 182 -70 280 -107 l177 -68 0 -219 c0 -172 -3 -219 -12 -215 -7 3
-246 105 -530 227 l-518 223 0 719 0 718 43 20 c53 26 439 188 450 189 4 1 7
-325 7 -723z"/>
</g>
</svg>
